<?xml version="1.0" encoding="utf-8"?>
<!-- Generator: Adobe Illustrator 23.0.3, SVG Export Plug-In . SVG Version: 6.00 Build 0)  -->
<svg version="1.1" id="Ebene_1" xmlns="http://www.w3.org/2000/svg" xmlns:xlink="http://www.w3.org/1999/xlink" x="0px" y="0px"
	 viewBox="0 0 207.5 22.9" style="enable-background:new 0 0 207.5 22.9;" xml:space="preserve">
<style type="text/css">
	.st0{fill:#1B6289;}
</style>
<g>
	<path class="st0" d="M8.5,17.4H5.8V3.3H1V1.1h12.3v2.3H8.5V17.4z"/>
	<path class="st0" d="M15.4,1.8c0-0.5,0.1-0.8,0.4-1.1s0.6-0.4,1.1-0.4c0.5,0,0.8,0.1,1.1,0.4c0.3,0.3,0.4,0.6,0.4,1.1
		c0,0.4-0.1,0.8-0.4,1.1c-0.3,0.3-0.6,0.4-1.1,0.4c-0.5,0-0.8-0.1-1.1-0.4S15.4,2.2,15.4,1.8z M18.2,17.4h-2.6V5h2.6V17.4z"/>
	<path class="st0" d="M32.4,17.4h-2.6V9.8c0-0.9-0.2-1.7-0.5-2.1C28.8,7.2,28.3,7,27.5,7c-1,0-1.8,0.3-2.2,1
		c-0.5,0.7-0.7,1.8-0.7,3.3v6.2h-2.6V5H24l0.4,1.6h0.1c0.3-0.6,0.8-1,1.5-1.4s1.4-0.5,2.2-0.5c1.9,0,3.2,0.6,3.8,1.9h0.2
		c0.4-0.6,0.9-1.1,1.5-1.4c0.7-0.3,1.4-0.5,2.3-0.5c1.5,0,2.6,0.4,3.2,1.1c0.7,0.7,1,1.9,1,3.4v8.1h-2.6V9.8c0-0.9-0.2-1.7-0.5-2.1
		C36.6,7.2,36.1,7,35.3,7c-1,0-1.8,0.3-2.2,1s-0.7,1.6-0.7,2.9V17.4z"/>
	<path class="st0" d="M49.2,17.6c-1.9,0-3.4-0.6-4.5-1.7c-1.1-1.1-1.6-2.7-1.6-4.6c0-2,0.5-3.6,1.5-4.8s2.4-1.7,4.2-1.7
		c1.6,0,2.9,0.5,3.9,1.5c0.9,1,1.4,2.4,1.4,4.1v1.4h-8.2c0,1.2,0.4,2.1,1,2.8c0.6,0.6,1.5,1,2.6,1c0.7,0,1.4-0.1,2-0.2
		s1.3-0.4,2-0.7v2.1c-0.6,0.3-1.3,0.5-1.9,0.6S50.1,17.6,49.2,17.6z M48.8,6.8c-0.8,0-1.5,0.3-2,0.8S46,8.9,45.9,9.9h5.6
		c0-1-0.3-1.8-0.7-2.3S49.6,6.8,48.8,6.8z"/>
	<path class="st0" d="M59.7,17.4H57V0h2.6V17.4z"/>
	<path class="st0" d="M71.2,17.4l-0.5-1.7h-0.1c-0.6,0.8-1.2,1.3-1.8,1.5c-0.6,0.3-1.4,0.4-2.3,0.4c-1.2,0-2.2-0.3-2.8-1
		c-0.7-0.7-1-1.6-1-2.8c0-1.3,0.5-2.2,1.4-2.9c0.9-0.6,2.4-1,4.3-1.1l2.1-0.1V9.2c0-0.8-0.2-1.4-0.6-1.8C69.5,7,69,6.8,68.2,6.8
		c-0.6,0-1.2,0.1-1.8,0.3c-0.6,0.2-1.1,0.4-1.7,0.7l-0.9-1.9c0.7-0.4,1.4-0.6,2.2-0.8s1.6-0.3,2.3-0.3c1.6,0,2.8,0.3,3.6,1
		s1.2,1.8,1.2,3.2v8.3H71.2z M67.3,15.6c1,0,1.7-0.3,2.3-0.8c0.6-0.5,0.9-1.3,0.9-2.2v-1.1l-1.6,0.1c-1.2,0-2.1,0.3-2.7,0.6
		c-0.6,0.4-0.8,0.9-0.8,1.7c0,0.6,0.2,1,0.5,1.3C66.1,15.5,66.6,15.6,67.3,15.6z"/>
	<path class="st0" d="M83,17.6c-1.6,0-2.8-0.6-3.6-1.7h-0.2c0.1,1,0.2,1.7,0.2,1.9v5.1h-2.6V5h2.1c0.1,0.2,0.2,0.8,0.4,1.7h0.1
		c0.8-1.3,2.1-1.9,3.7-1.9c1.5,0,2.7,0.6,3.6,1.7c0.9,1.1,1.3,2.7,1.3,4.7s-0.4,3.6-1.3,4.7S84.6,17.6,83,17.6z M82.4,7
		c-1,0-1.8,0.3-2.3,0.9c-0.5,0.6-0.7,1.6-0.7,2.9v0.4c0,1.5,0.2,2.6,0.7,3.3c0.5,0.7,1.3,1,2.3,1c0.9,0,1.6-0.4,2.1-1.1
		c0.5-0.7,0.7-1.8,0.7-3.2c0-1.4-0.2-2.4-0.7-3.2C84,7.3,83.3,7,82.4,7z"/>
	<path class="st0" d="M99.3,13.9c0,1.2-0.4,2.1-1.3,2.8c-0.9,0.6-2.1,1-3.8,1c-1.6,0-3-0.3-4-0.8v-2.3c1.5,0.7,2.8,1,4.1,1
		c1.6,0,2.4-0.5,2.4-1.5c0-0.3-0.1-0.6-0.3-0.8c-0.2-0.2-0.5-0.4-0.9-0.6c-0.4-0.2-1-0.5-1.7-0.8c-1.4-0.6-2.4-1.1-2.9-1.7
		c-0.5-0.6-0.8-1.3-0.8-2.1c0-1.1,0.4-1.9,1.3-2.5s2-0.9,3.5-0.9c1.5,0,2.8,0.3,4.1,0.9l-0.9,2c-1.3-0.6-2.5-0.8-3.4-0.8
		c-1.4,0-2.1,0.4-2.1,1.2c0,0.4,0.2,0.7,0.5,1s1.2,0.6,2.4,1.1c1,0.4,1.8,0.8,2.2,1.1c0.5,0.3,0.8,0.7,1,1.1
		C99.2,12.8,99.3,13.3,99.3,13.9z"/>
	<path class="st0" d="M107.6,17.6c-1.9,0-3.4-0.6-4.5-1.7s-1.6-2.7-1.6-4.6c0-2,0.5-3.6,1.5-4.8s2.4-1.7,4.2-1.7
		c1.6,0,2.9,0.5,3.9,1.5s1.4,2.4,1.4,4.1v1.4h-8.2c0,1.2,0.4,2.1,1,2.8c0.6,0.6,1.5,1,2.6,1c0.7,0,1.4-0.1,2-0.2
		c0.6-0.1,1.3-0.4,2-0.7v2.1c-0.6,0.3-1.3,0.5-1.9,0.6S108.4,17.6,107.6,17.6z M107.1,6.8c-0.8,0-1.5,0.3-2,0.8s-0.8,1.3-0.9,2.3
		h5.6c0-1-0.3-1.8-0.7-2.3C108.6,7.1,107.9,6.8,107.1,6.8z"/>
	<path class="st0" d="M134.8,17.4h-0.9l-3.6-12.6c-0.3-1-0.5-1.9-0.7-2.6c-0.1,0.6-0.3,1.4-0.5,2.2c-0.2,0.8-1.4,5.2-3.6,12.9h-1
		L120,1.1h1.2l2.9,10.5c0.1,0.4,0.2,0.8,0.3,1.2c0.1,0.4,0.2,0.7,0.3,1c0.1,0.3,0.1,0.6,0.2,0.9c0.1,0.3,0.1,0.6,0.2,0.9
		c0.2-1,0.6-2.6,1.1-4.6l2.8-9.9h1.3l3.3,11.4c0.4,1.3,0.7,2.4,0.8,3.2c0.1-0.5,0.2-1.1,0.4-1.7c0.2-0.6,1.3-4.9,3.5-12.9h1.2
		L134.8,17.4z"/>
	<path class="st0" d="M146.9,17.6c-1.8,0-3.1-0.5-4.1-1.6c-1-1.1-1.5-2.6-1.5-4.6c0-1.9,0.5-3.5,1.4-4.7c1-1.2,2.2-1.8,3.9-1.8
		c1.4,0,2.6,0.5,3.4,1.5c0.8,1,1.2,2.4,1.2,4.1v0.9h-8.8c0,1.7,0.4,2.9,1.2,3.8c0.8,0.9,1.9,1.3,3.3,1.3c0.7,0,1.3,0,1.8-0.1
		c0.5-0.1,1.2-0.3,2-0.6v1c-0.7,0.3-1.3,0.5-1.9,0.6C148.2,17.6,147.6,17.6,146.9,17.6z M146.5,6c-1.2,0-2.1,0.4-2.8,1.2
		s-1.1,1.9-1.2,3.3h7.5c0-1.4-0.3-2.5-0.9-3.3S147.6,6,146.5,6z"/>
	<path class="st0" d="M159.7,5c1.7,0,3,0.5,3.8,1.6s1.3,2.6,1.3,4.7c0,2-0.5,3.6-1.4,4.7c-0.9,1.1-2.2,1.6-3.8,1.6
		c-0.9,0-1.6-0.2-2.3-0.5c-0.7-0.4-1.2-0.9-1.6-1.5h-0.1l-0.3,1.8h-0.7V0h1.1v4.4c0,0.7,0,1.3,0,1.8l0,1h0.1c0.5-0.7,1-1.3,1.7-1.6
		C158,5.2,158.8,5,159.7,5z M159.7,6c-1.4,0-2.5,0.4-3.1,1.2s-0.9,2.2-0.9,4.1v0.2c0,1.8,0.3,3.2,1,4c0.6,0.8,1.7,1.2,3,1.2
		c1.3,0,2.3-0.5,3-1.4c0.7-0.9,1-2.3,1-4C163.6,7.8,162.3,6,159.7,6z"/>
	<path class="st0" d="M173,17.6c-1.7,0-3.1-0.5-4.1-1.6s-1.5-2.6-1.5-4.6c0-2,0.5-3.6,1.5-4.7s2.4-1.7,4.2-1.7c1.1,0,2.1,0.2,3,0.5
		l-0.3,1c-1.1-0.4-2-0.5-2.7-0.5c-1.5,0-2.6,0.5-3.4,1.4s-1.2,2.2-1.2,4c0,1.6,0.4,2.9,1.2,3.9s1.8,1.4,3.2,1.4
		c1.1,0,2.1-0.2,3.1-0.6v1C175.3,17.5,174.3,17.6,173,17.6z"/>
	<path class="st0" d="M186.5,17.4l-0.3-1.9h-0.1c-0.6,0.8-1.2,1.3-1.9,1.7c-0.6,0.3-1.4,0.5-2.3,0.5c-1.2,0-2.1-0.3-2.8-0.9
		s-1-1.5-1-2.5c0-1.2,0.5-2.1,1.5-2.8c1-0.7,2.4-1,4.3-1l2.3-0.1V9.5c0-1.2-0.2-2-0.7-2.6S184.3,6,183.2,6c-1.1,0-2.3,0.3-3.5,0.9
		l-0.4-1c1.3-0.6,2.7-0.9,4-0.9c1.3,0,2.3,0.3,3,1c0.7,0.7,1,1.8,1,3.2v8.1H186.5z M182,16.6c1.3,0,2.3-0.4,3.1-1.1s1.1-1.8,1.1-3.1
		v-1.2l-2.1,0.1c-1.7,0.1-2.9,0.3-3.7,0.8s-1.1,1.2-1.1,2.1c0,0.8,0.2,1.4,0.7,1.8C180.5,16.4,181.1,16.6,182,16.6z"/>
	<path class="st0" d="M206.4,17.4v-8c0-1.2-0.2-2.1-0.7-2.6c-0.5-0.5-1.2-0.8-2.1-0.8c-1.2,0-2.2,0.3-2.8,1s-0.9,1.8-0.9,3.2v7.1
		h-1.1V9.1c0-2.1-0.9-3.1-2.8-3.1c-1.3,0-2.2,0.4-2.8,1.1c-0.6,0.7-0.9,1.9-0.9,3.6v6.7h-1.1V5.2h0.9l0.2,1.7h0.1
		c0.3-0.6,0.8-1.1,1.4-1.4c0.6-0.3,1.3-0.5,2-0.5c1.9,0,3.1,0.7,3.7,2.2h0c0.4-0.7,0.9-1.2,1.6-1.6s1.4-0.6,2.3-0.6
		c1.3,0,2.3,0.4,3,1.1c0.7,0.7,1,1.8,1,3.4v8H206.4z"/>
</g>
</svg>
